<svg><symbol id="arrow-catalog" viewBox="0 0 12 9" xmlns="http://www.w3.org/2000/svg"><path d="M1 4a.5.5 0 000 1V4zm10.427.854a.5.5 0 000-.708L8.245.964a.5.5 0 10-.707.708L10.367 4.5 7.538 7.328a.5.5 0 00.707.708l3.182-3.182zM1 5h10.074V4H1v1z"/></symbol><symbol id="search" viewBox="0 0 17 18" xmlns="http://www.w3.org/2000/svg"><path d="M16.483 15.81l-4.29-4.303A6.599 6.599 0 0013.6 7.426a6.665 6.665 0 10-6.664 6.665 6.598 6.598 0 004.082-1.408l4.282 4.31a.834.834 0 001.365-.27.833.833 0 00-.182-.912zM1.937 7.425a4.998 4.998 0 119.997 0 4.998 4.998 0 01-9.997 0z"/></symbol></svg>