<svg>
	<symbol id="arrow-catalog" width="12" height="9" viewBox="0 0 12 9" xmlns="http://www.w3.org/2000/svg">
		<path d="M1 4C0.723858 4 0.5 4.22386 0.5 4.5C0.5 4.77614 0.723858 5 1 5V4ZM11.4273 4.85355C11.6226 4.65829 11.6226 4.34171 11.4273 4.14645L8.24535 0.964466C8.05009 0.769204 7.73351 0.769204 7.53825 0.964466C7.34299 1.15973 7.34299 1.47631 7.53825 1.67157L10.3667 4.5L7.53825 7.32843C7.34299 7.52369 7.34299 7.84027 7.53825 8.03553C7.73351 8.2308 8.05009 8.2308 8.24535 8.03553L11.4273 4.85355ZM1 5H11.0738V4H1V5Z" />
	</symbol>
	<symbol id="search" width="17" height="18" viewBox="0 0 17 18" xmlns="http://www.w3.org/2000/svg">
        <path d="M16.4826 15.8096L12.1923 11.5075C13.1061 10.3432 13.602 8.90553 13.6002 7.42546C13.6002 6.10735 13.2093 4.81883 12.477 3.72285C11.7447 2.62688 10.7038 1.77267 9.48604 1.26825C8.26826 0.763828 6.92825 0.631848 5.63546 0.889C4.34267 1.14615 3.15516 1.78089 2.22311 2.71294C1.29106 3.64499 0.65633 4.83249 0.399178 6.12528C0.142026 7.41807 0.274006 8.75808 0.778427 9.97586C1.28285 11.1936 2.13706 12.2345 3.23303 12.9668C4.32901 13.6991 5.61752 14.09 6.93564 14.09C8.41571 14.0918 9.85341 13.596 11.0177 12.6821L15.2996 16.9926C15.3771 17.0707 15.4692 17.1326 15.5707 17.1749C15.6723 17.2172 15.7811 17.239 15.8911 17.239C16.0011 17.239 16.11 17.2172 16.2115 17.1749C16.313 17.1326 16.4051 17.0707 16.4826 16.9926C16.5607 16.9151 16.6227 16.823 16.6649 16.7215C16.7072 16.62 16.729 16.5111 16.729 16.4011C16.729 16.2911 16.7072 16.1823 16.6649 16.0807C16.6227 15.9792 16.5607 15.8871 16.4826 15.8096ZM1.93725 7.42546C1.93725 6.43687 2.2304 5.47049 2.77963 4.64851C3.32886 3.82653 4.1095 3.18587 5.02284 2.80755C5.93618 2.42924 6.94118 2.33025 7.91078 2.52312C8.88037 2.71598 9.771 3.19203 10.47 3.89107C11.1691 4.5901 11.6451 5.48073 11.838 6.45033C12.0308 7.41992 11.9319 8.42493 11.5535 9.33826C11.1752 10.2516 10.5346 11.0322 9.7126 11.5815C8.89062 12.1307 7.92423 12.4239 6.93564 12.4239C5.60998 12.4239 4.33862 11.8972 3.40125 10.9599C2.46387 10.0225 1.93725 8.75112 1.93725 7.42546Z" />
    </symbol>
</svg>